<svg xmlns="http://www.w3.org/2000/svg" viewBox="0 0 1600 1000" role="img" aria-label="Triathlon night city vibe">
  <defs>
    <linearGradient id="bg" x1="0" y1="0" x2="0" y2="1">
      <stop offset="0" stop-color="#05070b"/>
      <stop offset="1" stop-color="#131923"/>
    </linearGradient>
    <radialGradient id="beam" cx="20%" cy="15%" r="55%">
      <stop offset="0" stop-color="#e8f1ff" stop-opacity="0.24"/>
      <stop offset="1" stop-color="#e8f1ff" stop-opacity="0"/>
    </radialGradient>
  </defs>
  <rect width="1600" height="1000" fill="url(#bg)"/>
  <rect width="1600" height="1000" fill="url(#beam)"/>
  <g opacity="0.2" fill="#d7e3f5">
    <rect x="120" y="110" width="90" height="500"/><rect x="250" y="90" width="140" height="520"/><rect x="430" y="140" width="115" height="470"/>
    <rect x="980" y="120" width="130" height="500"/><rect x="1140" y="100" width="140" height="520"/><rect x="1320" y="130" width="120" height="490"/>
  </g>
  <polygon points="0,640 1600,610 1600,1000 0,1000" fill="#0a0d13"/>
  <g stroke="#f5f9ff" stroke-opacity="0.2" stroke-width="2">
    <line x1="0" y1="704" x2="1600" y2="674"/>
    <line x1="0" y1="760" x2="1600" y2="730"/>
  </g>
  <g fill="#f7fbff" opacity="0.9">
    <circle cx="770" cy="560" r="23"/>
    <path d="M758 587l84 32-14 36-54-20-24 40-32-20 30-48z"/>
    <circle cx="666" cy="768" r="56" fill="none" stroke="#f7fbff" stroke-width="12"/>
    <circle cx="884" cy="768" r="56" fill="none" stroke="#f7fbff" stroke-width="12"/>
    <rect x="650" y="736" width="260" height="18" rx="9"/>
    <path d="M866 608l45 77-30 18-46-75z"/>
  </g>
</svg>
